<svg id="Icons" height="512" viewBox="0 0 74 74" width="512" xmlns="http://www.w3.org/2000/svg"><path d="m71 13h-9a1 1 0 0 1 -1-1v-9a1 1 0 0 1 1-1h9a1 1 0 0 1 1 1v9a1 1 0 0 1 -1 1zm-8-2h7v-7h-7z"/><path d="m12 72h-9a1 1 0 0 1 -1-1v-9a1 1 0 0 1 1-1h9a1 1 0 0 1 1 1v9a1 1 0 0 1 -1 1zm-8-2h7v-7h-7z"/><path d="m41.5 42.5h-9a1 1 0 0 1 -1-1v-9a1 1 0 0 1 1-1h9a1 1 0 0 1 1 1v9a1 1 0 0 1 -1 1zm-8-2h7v-7h-7z"/><path d="m8.5 62h-2a26.029 26.029 0 0 1 26-26v2a24.027 24.027 0 0 0 -24 24z"/><path d="m41.5 38v-2a24.027 24.027 0 0 0 24-24h2a26.029 26.029 0 0 1 -26 26z"/><path d="m41.5 36h18.5v2h-18.5z"/><path d="m13 36h19.5v2h-19.5z"/><path d="m63 41a4 4 0 1 1 4-4 4 4 0 0 1 -4 4zm0-6a2 2 0 1 0 2 2 2 2 0 0 0 -2-2z"/><path d="m10 41a4 4 0 1 1 4-4 4 4 0 0 1 -4 4zm0-6a2 2 0 1 0 2 2 2 2 0 0 0 -2-2z"/></svg>